<?xml version="1.0" encoding="UTF-8"?>
<svg id="Layer_1" xmlns="http://www.w3.org/2000/svg" version="1.1" viewBox="0 0 198 38">
  <!-- Generator: Adobe Illustrator 29.5.1, SVG Export Plug-In . SVG Version: 2.1.0 Build 141)  -->
  <defs>
    <style>
      .st0 {
        fill: #27276d;
      }
    </style>
  </defs>
  <g>
    <path class="st0" d="M64.91,2.47v2.39h-3.06v-2.39h3.06ZM61.85,14.14V5.76h3.06v8.38h-3.06Z"/>
    <path class="st0" d="M70.19,5.76v1.1l1.1-1.1h4.75l2.31,2.28v6.1h-3.06v-6.1h-5.1v6.1h-3.06V5.76h3.06Z"/>
    <path class="st0" d="M83.33,2.25v3.51h5.68l-2.25,2.28h-3.44v3.84h7.42l-2.28,2.28h-5.9l-2.31-2.28v-7.86l3.06-1.77Z"/>
    <path class="st0" d="M99.29,8.94v-.9h-4.36v3.84h7.42l-2.28,2.28h-5.9l-2.31-2.32v-3.8l2.31-2.28h5.9l2.28,2.28v2.96h-6.74l2.06-2.06h1.62Z"/>
    <path class="st0" d="M106.26,5.76h9.08v10.09l-2.3,2.28h-5.9l-2.28-2.28h7.42v-2.8l-1.1,1.1h-4.91l-2.31-2.28v-3.8l2.31-2.32ZM107.01,8.04v3.84h5.26v-3.84h-5.26Z"/>
    <path class="st0" d="M127.76,5.76l-2.25,2.28h-5.04v6.1h-3.06v-6.06l2.3-2.32h8.05Z"/>
    <path class="st0" d="M127.83,11.88v-3.8l2.31-2.32h9.08v8.38h-3.06v-1.09l-1.1,1.1h-4.91l-2.31-2.28ZM130.89,11.88h5.26v-3.84h-5.26v3.84Z"/>
    <path class="st0" d="M144.33,2.25v3.51h5.68l-2.25,2.28h-3.44v3.84h7.42l-2.28,2.28h-5.9l-2.3-2.28v-7.86l3.06-1.77Z"/>
    <path class="st0" d="M156.22,2.47v2.39h-3.06v-2.39h3.06ZM153.16,14.14V5.76h3.06v8.38h-3.06Z"/>
    <path class="st0" d="M169.53,8.08v3.8l-2.3,2.28h-6.77l-2.31-2.28v-3.8l2.31-2.32h6.77l2.3,2.32ZM166.47,8.04h-5.26v3.84h5.26v-3.84Z"/>
    <path class="st0" d="M174.5,5.76v1.1l1.1-1.1h4.75l2.31,2.28v6.1h-3.06v-6.1h-5.1v6.1h-3.06V5.76h3.06Z"/>
  </g>
  <g>
    <path class="st0" d="M64.77,21.66v3.51h5.68l-2.25,2.28h-3.44v3.84h7.42l-2.28,2.28h-5.9l-2.31-2.28v-7.86l3.06-1.77Z"/>
    <path class="st0" d="M80.73,28.34v-.9h-4.36v3.84h7.42l-2.28,2.28h-5.9l-2.31-2.32v-3.8l2.31-2.28h5.9l2.28,2.28v2.96h-6.74l2.06-2.06h1.62Z"/>
    <path class="st0" d="M88.46,31.28h7.42l-2.28,2.28h-5.9l-2.31-2.28v-3.8l2.31-2.32h8.54l-2.26,2.28h-5.52v3.84Z"/>
    <path class="st0" d="M100.74,21.66v4.61l1.1-1.1h4.1l2.31,2.28v6.1h-3.06v-6.1h-4.45v6.1h-3.06v-10.12l3.06-1.77Z"/>
    <path class="st0" d="M113.38,25.17v1.1l1.1-1.1h4.75l2.31,2.28v6.1h-3.06v-6.1h-5.1v6.1h-3.06v-8.38h3.06Z"/>
    <path class="st0" d="M134.69,27.49v3.8l-2.3,2.28h-6.77l-2.31-2.28v-3.8l2.31-2.32h6.77l2.3,2.32ZM131.63,27.44h-5.26v3.84h5.26v-3.84Z"/>
    <path class="st0" d="M139.66,21.66v11.9h-3.06v-10.13l3.06-1.77Z"/>
    <path class="st0" d="M152.97,27.49v3.8l-2.3,2.28h-6.77l-2.31-2.28v-3.8l2.31-2.32h6.77l2.3,2.32ZM149.91,27.44h-5.26v3.84h5.26v-3.84Z"/>
    <path class="st0" d="M156.9,25.17h9.08v10.09l-2.3,2.28h-5.9l-2.28-2.28h7.42v-2.8l-1.1,1.1h-4.91l-2.31-2.28v-3.8l2.31-2.32ZM157.65,27.44v3.84h5.26v-3.84h-5.26Z"/>
    <path class="st0" d="M168.05,31.27v-6.1h3.06v6.1h4.77v-6.1h3.06v10.09l-2.31,2.28h-5.9l-2.28-2.28h7.42v-2.81l-1.1,1.1h-4.42l-2.3-2.28Z"/>
  </g>
  <path class="st0" d="M27.1,5v8.64h14l-5.54,5.61h-8.47v9.47h18.29l-5.61,5.61h-14.54l-5.68-5.61V9.36l7.54-4.36Z"/>
  <path class="st0" d="M48.58,5.35l5.68,5.71v14.93h-7.54v-15.04h-12.43l-5.54-5.61h19.82Z"/>
  <rect class="st0" x="51.76" y="1.92" width="6.5" height="6.5" transform="translate(22.53 -39.53) rotate(48.63)"/>
</svg>