<?xml version="1.0" encoding="utf-8"?>
<!-- Generator: Adobe Illustrator 28.3.0, SVG Export Plug-In . SVG Version: 6.00 Build 0)  -->
<svg version="1.1" id="Layer_1" xmlns="http://www.w3.org/2000/svg" xmlns:xlink="http://www.w3.org/1999/xlink" x="0px" y="0px"
	 viewBox="0 0 500 500" style="enable-background:new 0 0 500 500;" xml:space="preserve">
<style type="text/css">
	.st0{fill:#54AFE6;}
	.st1{clip-path:url(#SVGID_00000101783972985407851330000004554871821018496665_);}
	.st2{fill:#286291;}
	.st3{clip-path:url(#SVGID_00000134212998599020072350000003231120428732764058_);}
</style>
<path class="st0" d="M199.1,131.8C199.1,131.7,199.1,131.7,199.1,131.8C199.1,131.7,199.1,131.7,199.1,131.8"/>
<g>
	<defs>
		<rect id="SVGID_1_" x="168.4" y="117.2" width="35.7" height="24.9"/>
	</defs>
	<clipPath id="SVGID_00000140694460557140301930000013487420649485855107_">
		<use xlink:href="#SVGID_1_"  style="overflow:visible;"/>
	</clipPath>
	<g style="clip-path:url(#SVGID_00000140694460557140301930000013487420649485855107_);">
		<path class="st0" d="M202.3,134.4c-0.5,0.7-1.3,0.8-1.9,0.3c-0.6-0.5-0.7-1.5-0.3-2.2c0.5-0.7,1.3-0.8,1.9-0.3
			C202.6,132.7,202.8,133.7,202.3,134.4z M193.2,117.2c-2.7,0-5.2,1.2-7.1,3.3l-14.3,16.2c-0.8-0.3-1.7-0.1-2.4,0.6
			c-0.9,1-0.9,2.7,0,3.7c0.9,1,2.4,1,3.3,0c0.6-0.7,0.8-1.8,0.6-2.7l14.3-16.2c3.1-3.5,8.2-3.5,11.4,0c2,2.2,2.7,5.4,2.2,8.3
			c-0.8,0-1.5,0.5-2,1.2c0.1-0.1,0.1-0.2,0,0c-0.9,1.3-0.6,3.2,0.5,4.2c1.2,1,2.8,0.7,3.7-0.6c0.8-1.2,0.7-2.9-0.3-3.9
			c0.3-1.4,0.4-2.8,0.2-4.2c-0.3-2.5-1.3-4.8-2.9-6.6C198.4,118.4,195.9,117.2,193.2,117.2"/>
	</g>
</g>
<path class="st2" d="M88.1,287C88.1,287,88.1,287,88.1,287C88.1,287,88.1,287,88.1,287"/>
<path class="st2" d="M164.7,140.6C164.7,140.6,164.7,140.7,164.7,140.6C164.7,140.7,164.7,140.6,164.7,140.6"/>
<g>
	<defs>
		<rect id="SVGID_00000163046143636895592160000007993880782212232634_" x="159.7" y="130.3" width="35.7" height="24.9"/>
	</defs>
	<clipPath id="SVGID_00000013894398307879677080000000890019800395516083_">
		<use xlink:href="#SVGID_00000163046143636895592160000007993880782212232634_"  style="overflow:visible;"/>
	</clipPath>
	<g style="clip-path:url(#SVGID_00000013894398307879677080000000890019800395516083_);">
		<path class="st2" d="M161.5,138c0.5-0.7,1.3-0.8,1.9-0.3c0.6,0.5,0.7,1.5,0.3,2.2c-0.5,0.7-1.3,0.8-1.9,0.3
			C161.1,139.6,161,138.7,161.5,138z M170.5,155.2c2.7,0,5.2-1.2,7.1-3.3l14.3-16.2c0.8,0.3,1.7,0.1,2.4-0.6c0.9-1,0.9-2.7,0-3.7
			c-0.9-1-2.4-1-3.3,0c-0.6,0.7-0.8,1.8-0.6,2.7l-14.3,16.2c-3.1,3.5-8.2,3.5-11.4,0c-2-2.2-2.7-5.4-2.2-8.3c0.8,0,1.5-0.4,2-1.2
			c-0.1,0.1-0.1,0.2,0,0c0.9-1.3,0.6-3.2-0.5-4.2c-1.2-1-2.8-0.7-3.7,0.6c-0.8,1.2-0.7,2.9,0.3,3.9c-0.3,1.4-0.4,2.8-0.2,4.2
			c0.3,2.5,1.3,4.8,2.9,6.6C165.3,154,167.8,155.2,170.5,155.2"/>
	</g>
</g>
<g>
	<g transform="translate(145.385195, 210.499952)">
		<g>
			<path d="M82.5-85.7h-3.4v-2.6h9.4v2.6h-3.4v11.8h-2.6V-85.7z"/>
		</g>
	</g>
</g>
<g>
	<g transform="translate(160.958152, 210.499952)">
		<g>
			<path d="M78.9-85.7v3.4h4.5v2.5h-4.5v3.4h5.7v2.5h-8.3v-14.4h8.3v2.5H78.9z"/>
		</g>
	</g>
</g>
<g>
	<g transform="translate(177.230994, 210.499952)">
		<g>
			<path d="M76.7-73.6c-1.3,0-2.4-0.3-3.1-0.8c-0.7-0.5-1.2-1.3-1.5-2.4c-0.3-1.1-0.4-2.5-0.4-4.2c0-1.9,0.1-3.4,0.4-4.5
				c0.3-1.1,0.8-1.8,1.5-2.3c0.7-0.5,1.7-0.7,2.9-0.7c1.1,0,2.4,0.2,3.8,0.6l-0.1,2.3c-1.2-0.2-2.2-0.3-3-0.3
				c-0.8,0-1.4,0.1-1.8,0.4c-0.4,0.3-0.7,0.7-0.8,1.4c-0.2,0.6-0.2,1.5-0.2,2.7v0.8c0,1.2,0.1,2.1,0.2,2.7c0.1,0.6,0.4,1,0.8,1.3
				c0.4,0.3,1,0.4,1.8,0.4c0.8,0,1.9-0.1,3.1-0.3l0.1,2.4C79-73.8,77.8-73.6,76.7-73.6z"/>
		</g>
	</g>
</g>
<g>
	<g transform="translate(193.22888, 210.499952)">
		<g>
			<path d="M78.2-88.2v14.4h-2.6v-6h-4.7v6h-2.6v-14.4h2.6v5.9h4.7v-5.9H78.2z"/>
		</g>
	</g>
</g>
<g>
	<g transform="translate(212.576235, 210.499952)">
		<g>
			<path d="M63.4-88.2H66v14.4h-2.6V-88.2z"/>
		</g>
	</g>
</g>
<g>
	<g transform="translate(222.150138, 210.499952)">
		<g>
			<path d="M71.2-88.2v14.4H67l-3.2-11.8h-0.2v11.8H61v-14.4h4.4l3.1,11.8h0.2v-11.8H71.2z"/>
		</g>
	</g>
</g>
<g>
	<g transform="translate(241.897427, 210.499952)">
		<g>
			<path d="M58.4-85.7H55v-2.6h9.4v2.6H61v11.8h-2.6V-85.7z"/>
		</g>
	</g>
</g>
<g>
	<g transform="translate(257.470386, 210.499952)">
		<g>
			<path d="M54.8-85.7v3.4h4.5v2.5h-4.5v3.4h5.7v2.5h-8.3v-14.4h8.3v2.5H54.8z"/>
		</g>
	</g>
</g>
<g>
	<g transform="translate(273.743231, 210.499952)">
		<g>
			<path d="M52.8-73.6c-1.3,0-2.4-0.3-3.1-0.8c-0.8-0.5-1.3-1.3-1.6-2.4c-0.3-1.1-0.5-2.5-0.5-4.3c0-1.8,0.2-3.2,0.5-4.2
				c0.3-1.1,0.9-1.9,1.6-2.4c0.8-0.5,1.7-0.8,3-0.8c1.2,0,2.4,0.1,3.8,0.4l0.7,0.2l-0.1,2.3c-1.5-0.2-2.7-0.3-3.7-0.3
				c-1,0-1.7,0.2-2.2,0.6c-0.5,0.4-0.7,0.9-0.8,1.5c-0.1,0.6-0.2,1.6-0.2,2.8c0,1.3,0.1,2.2,0.2,2.9c0.2,0.7,0.4,1.2,0.8,1.5
				c0.4,0.3,1,0.4,1.8,0.4c0.7,0,1.2,0,1.5-0.1V-79h-1.2v-2.5h3.7v7.4C55.3-73.8,53.9-73.6,52.8-73.6z"/>
		</g>
	</g>
</g>
<g>
	<g transform="translate(291.440854, 210.499952)">
		<g>
			<path d="M43.7-88.2h5c3,0,4.5,1.6,4.5,4.7c0,1.9-0.6,3.3-1.9,4.1l1.8,5.5h-2.8l-1.5-4.8h-2.5v4.8h-2.6V-88.2z M48.7-81.2
				c0.6,0,1-0.2,1.3-0.6c0.3-0.4,0.5-1,0.5-1.7c0-0.7-0.2-1.3-0.5-1.6c-0.3-0.4-0.8-0.6-1.4-0.6h-2.4v4.6H48.7z"/>
		</g>
	</g>
</g>
<g>
	<g transform="translate(309.363433, 210.499952)">
		<g>
			<path d="M41.8-79.7l-3.9-8.6h2.9l2.3,5.7l2.3-5.7h2.9l-3.9,8.6v5.8h-2.6V-79.7z"/>
		</g>
	</g>
</g>
<g>
	<g transform="translate(158.62646, 230.271174)">
		<g>
			<path d="M76-81.6h0.8v4.6H76V-81.6z"/>
		</g>
	</g>
</g>
<g>
	<g transform="translate(161.626597, 230.271174)">
		<g>
			<path d="M78.5-81.6v4.6h-1.4l-1-3.8H76v3.8h-0.8v-4.6h1.4l1,3.8h0.1v-3.8H78.5z"/>
		</g>
	</g>
</g>
<g>
	<g transform="translate(167.882887, 230.271174)">
		<g>
			<path d="M76.9-81.6v4.6h-1.4l-1-3.8h-0.1v3.8h-0.8v-4.6H75l1,3.8h0.1v-3.8H76.9z"/>
		</g>
	</g>
</g>
<g>
	<g transform="translate(174.139177, 230.271174)">
		<g>
			<path d="M73.6-76.9c-0.4,0-0.7-0.1-1-0.3c-0.2-0.2-0.4-0.4-0.5-0.8c-0.1-0.3-0.2-0.8-0.2-1.3c0-0.6,0.1-1,0.2-1.3
				c0.1-0.3,0.3-0.6,0.5-0.8c0.2-0.2,0.6-0.3,1-0.3c0.4,0,0.7,0.1,1,0.3c0.2,0.2,0.4,0.4,0.5,0.8c0.1,0.3,0.2,0.8,0.2,1.3
				c0,0.5-0.1,1-0.2,1.3c-0.1,0.3-0.3,0.6-0.5,0.8C74.3-77,74-76.9,73.6-76.9z M73.6-77.7c0.2,0,0.4,0,0.5-0.1
				c0.1-0.1,0.2-0.3,0.3-0.5c0.1-0.2,0.1-0.5,0.1-0.9c0-0.4,0-0.7-0.1-0.9c-0.1-0.2-0.1-0.4-0.3-0.5c-0.1-0.1-0.3-0.2-0.5-0.2
				c-0.2,0-0.4,0.1-0.5,0.2c-0.1,0.1-0.2,0.3-0.3,0.5c-0.1,0.2-0.1,0.5-0.1,0.9c0,0.4,0,0.7,0.1,0.9c0,0.2,0.1,0.4,0.3,0.5
				C73.2-77.7,73.4-77.7,73.6-77.7z"/>
		</g>
	</g>
</g>
<g>
	<g transform="translate(180.067452, 230.271174)">
		<g>
			<path d="M70.2-81.6h0.9l0.7,3.8h0.3l0.7-3.8h0.9L72.7-77h-1.5L70.2-81.6z"/>
		</g>
	</g>
</g>
<g>
	<g transform="translate(185.603713, 230.271174)">
		<g>
			<path d="M71.3-77.8h-1.4L69.7-77h-0.8l0.9-4.6h1.6l0.9,4.6h-0.8L71.3-77.8z M70.7-80.8h-0.3L70-78.6h1.1L70.7-80.8z"/>
		</g>
	</g>
</g>
<g>
	<g transform="translate(191.131968, 230.271174)">
		<g>
			<path d="M68.6-80.7h-1.1v-0.8h3v0.8h-1.1v3.8h-0.8V-80.7z"/>
		</g>
	</g>
</g>
<g>
	<g transform="translate(196.052196, 230.271174)">
		<g>
			<path d="M66.6-81.6h0.8v4.6h-0.8V-81.6z"/>
		</g>
	</g>
</g>
<g>
	<g transform="translate(199.052333, 230.271174)">
		<g>
			<path d="M69.1-81.6v4.6h-1.4l-1-3.8h-0.1v3.8h-0.8v-4.6h1.4l1,3.8h0.1v-3.8H69.1z"/>
		</g>
	</g>
</g>
<g>
	<g transform="translate(205.308622, 230.271174)">
		<g>
			<path d="M65.8-76.9c-0.4,0-0.7-0.1-1-0.3c-0.2-0.2-0.4-0.4-0.5-0.8c-0.1-0.3-0.2-0.8-0.2-1.4c0-0.6,0.1-1,0.2-1.4
				c0.1-0.3,0.3-0.6,0.5-0.8c0.2-0.2,0.6-0.2,1-0.2c0.4,0,0.8,0,1.2,0.1l0.2,0.1l0,0.7c-0.5-0.1-0.9-0.1-1.2-0.1
				c-0.3,0-0.6,0.1-0.7,0.2c-0.1,0.1-0.2,0.3-0.3,0.5c0,0.2,0,0.5,0,0.9c0,0.4,0,0.7,0.1,0.9c0,0.2,0.1,0.4,0.3,0.5
				c0.1,0.1,0.3,0.1,0.6,0.1c0.2,0,0.4,0,0.5,0v-0.9H66v-0.8h1.2v2.4C66.6-76.9,66.1-76.9,65.8-76.9z"/>
		</g>
	</g>
</g>
<g>
	<g transform="translate(210.908881, 230.271174)">
	</g>
</g>
<g>
	<g transform="translate(210.908881, 230.271174)">
	</g>
</g>
<g>
	<g transform="translate(213.380992, 230.271174)">
		<g>
			<path d="M63-80.7h-1.1v-0.8h3v0.8h-1.1v3.8H63V-80.7z"/>
		</g>
	</g>
</g>
<g>
	<g transform="translate(218.30122, 230.271174)">
		<g>
			<path d="M62.6-76.9c-0.4,0-0.7-0.1-1-0.3c-0.2-0.2-0.4-0.4-0.5-0.8c-0.1-0.3-0.2-0.8-0.2-1.3c0-0.6,0.1-1,0.2-1.3
				c0.1-0.3,0.3-0.6,0.5-0.8c0.2-0.2,0.6-0.3,1-0.3c0.4,0,0.7,0.1,1,0.3c0.2,0.2,0.4,0.4,0.5,0.8c0.1,0.3,0.2,0.8,0.2,1.3
				c0,0.5-0.1,1-0.2,1.3c-0.1,0.3-0.3,0.6-0.5,0.8C63.3-77,63-76.9,62.6-76.9z M62.6-77.7c0.2,0,0.4,0,0.5-0.1
				c0.1-0.1,0.2-0.3,0.3-0.5c0.1-0.2,0.1-0.5,0.1-0.9c0-0.4,0-0.7-0.1-0.9c-0.1-0.2-0.1-0.4-0.3-0.5c-0.1-0.1-0.3-0.2-0.5-0.2
				s-0.4,0.1-0.5,0.2c-0.1,0.1-0.2,0.3-0.3,0.5c-0.1,0.2-0.1,0.5-0.1,0.9c0,0.4,0,0.7,0.1,0.9c0,0.2,0.1,0.4,0.3,0.5
				C62.2-77.7,62.3-77.7,62.6-77.7z"/>
		</g>
	</g>
</g>
<g>
	<g transform="translate(224.229495, 230.271174)">
		<g>
			<path d="M63.8-81.6v4.6H63v-3.5h-0.1l-0.8,3.4h-0.8l-0.8-3.4h-0.1v3.5h-0.8v-4.6H61l0.7,3.3l0.7-3.3H63.8z"/>
		</g>
	</g>
</g>
<g>
	<g transform="translate(231.805847, 230.271174)">
		<g>
			<path d="M59.2-76.9c-0.4,0-0.7-0.1-1-0.3c-0.2-0.2-0.4-0.4-0.5-0.8c-0.1-0.3-0.2-0.8-0.2-1.3c0-0.6,0.1-1,0.2-1.3
				c0.1-0.3,0.3-0.6,0.5-0.8c0.2-0.2,0.6-0.3,1-0.3c0.4,0,0.7,0.1,1,0.3c0.2,0.2,0.4,0.4,0.5,0.8c0.1,0.3,0.2,0.8,0.2,1.3
				c0,0.5-0.1,1-0.2,1.3c-0.1,0.3-0.3,0.6-0.5,0.8C59.9-77,59.6-76.9,59.2-76.9z M59.2-77.7c0.2,0,0.4,0,0.5-0.1
				c0.1-0.1,0.2-0.3,0.3-0.5c0.1-0.2,0.1-0.5,0.1-0.9c0-0.4,0-0.7-0.1-0.9c-0.1-0.2-0.1-0.4-0.3-0.5c-0.1-0.1-0.3-0.2-0.5-0.2
				s-0.4,0.1-0.5,0.2c-0.1,0.1-0.2,0.3-0.3,0.5c-0.1,0.2-0.1,0.5-0.1,0.9c0,0.4,0,0.7,0.1,0.9c0,0.2,0.1,0.4,0.3,0.5
				C58.8-77.7,59-77.7,59.2-77.7z"/>
		</g>
	</g>
</g>
<g>
	<g transform="translate(237.734122, 230.271174)">
		<g>
			<path d="M56.2-81.6h1.6c1,0,1.4,0.5,1.4,1.5c0,0.6-0.2,1-0.6,1.3l0.6,1.8h-0.9l-0.5-1.5H57v1.5h-0.8V-81.6z M57.8-79.3
				c0.2,0,0.3-0.1,0.4-0.2c0.1-0.1,0.2-0.3,0.2-0.5c0-0.2-0.1-0.4-0.2-0.5c-0.1-0.1-0.2-0.2-0.4-0.2H57v1.5H57.8z"/>
		</g>
	</g>
</g>
<g>
	<g transform="translate(243.406385, 230.271174)">
		<g>
			<path d="M54.8-81.6h1.6c1,0,1.4,0.5,1.4,1.5c0,0.6-0.2,1-0.6,1.3l0.6,1.8h-0.9l-0.5-1.5h-0.8v1.5h-0.8V-81.6z M56.4-79.3
				c0.2,0,0.3-0.1,0.4-0.2c0.1-0.1,0.2-0.3,0.2-0.5c0-0.2-0.1-0.4-0.2-0.5c-0.1-0.1-0.2-0.2-0.4-0.2h-0.8v1.5H56.4z"/>
		</g>
	</g>
</g>
<g>
	<g transform="translate(249.078648, 230.271174)">
		<g>
			<path d="M54.9-76.9c-0.4,0-0.7-0.1-1-0.3c-0.2-0.2-0.4-0.4-0.5-0.8c-0.1-0.3-0.2-0.8-0.2-1.3c0-0.6,0.1-1,0.2-1.3
				c0.1-0.3,0.3-0.6,0.5-0.8c0.2-0.2,0.6-0.3,1-0.3c0.4,0,0.7,0.1,1,0.3c0.2,0.2,0.4,0.4,0.5,0.8c0.1,0.3,0.2,0.8,0.2,1.3
				c0,0.5-0.1,1-0.2,1.3c-0.1,0.3-0.3,0.6-0.5,0.8C55.6-77,55.3-76.9,54.9-76.9z M54.9-77.7c0.2,0,0.4,0,0.5-0.1
				c0.1-0.1,0.2-0.3,0.3-0.5c0.1-0.2,0.1-0.5,0.1-0.9c0-0.4,0-0.7-0.1-0.9c-0.1-0.2-0.1-0.4-0.3-0.5c-0.1-0.1-0.3-0.2-0.5-0.2
				c-0.2,0-0.4,0.1-0.5,0.2c-0.1,0.1-0.2,0.3-0.3,0.5c-0.1,0.2-0.1,0.5-0.1,0.9c0,0.4,0,0.7,0.1,0.9c0,0.2,0.1,0.4,0.3,0.5
				C54.5-77.7,54.6-77.7,54.9-77.7z"/>
		</g>
	</g>
</g>
<g>
	<g transform="translate(255.006918, 230.271174)">
		<g>
			<path d="M51.5-81.6h0.9l0.5,3.8H53l0.7-3.8h1l0.7,3.8h0.1l0.5-3.8h0.9L56.1-77h-1.3l-0.6-3.5L53.6-77h-1.3L51.5-81.6z"/>
		</g>
	</g>
</g>
<g>
	<g transform="translate(263.159298, 230.271174)">
		<g>
			<path d="M49.8-77.9h0.9l-0.5,1.8h-0.7L49.8-77.9z"/>
		</g>
	</g>
</g>
<g>
	<g transform="translate(265.975421, 230.271174)">
	</g>
</g>
<g>
	<g transform="translate(265.975421, 230.271174)">
	</g>
</g>
<g>
	<g transform="translate(268.447527, 230.271174)">
		<g>
			<path d="M49.2-80.7h-1.1v-0.8h3v0.8h-1.1v3.8h-0.8V-80.7z"/>
		</g>
	</g>
</g>
<g>
	<g transform="translate(273.36775, 230.271174)">
		<g>
			<path d="M48.8-76.9c-0.4,0-0.7-0.1-1-0.3c-0.2-0.2-0.4-0.4-0.5-0.8c-0.1-0.3-0.2-0.8-0.2-1.3c0-0.6,0.1-1,0.2-1.3
				c0.1-0.3,0.3-0.6,0.5-0.8c0.2-0.2,0.6-0.3,1-0.3c0.4,0,0.7,0.1,1,0.3c0.2,0.2,0.4,0.4,0.5,0.8c0.1,0.3,0.2,0.8,0.2,1.3
				c0,0.5-0.1,1-0.2,1.3c-0.1,0.3-0.3,0.6-0.5,0.8C49.6-77,49.2-76.9,48.8-76.9z M48.8-77.7c0.2,0,0.4,0,0.5-0.1
				c0.1-0.1,0.2-0.3,0.3-0.5c0.1-0.2,0.1-0.5,0.1-0.9c0-0.4,0-0.7-0.1-0.9c-0.1-0.2-0.1-0.4-0.3-0.5c-0.1-0.1-0.3-0.2-0.5-0.2
				s-0.4,0.1-0.5,0.2c-0.1,0.1-0.2,0.3-0.3,0.5C48-79.9,48-79.6,48-79.2c0,0.4,0,0.7,0.1,0.9c0,0.2,0.1,0.4,0.3,0.5
				C48.4-77.7,48.6-77.7,48.8-77.7z"/>
		</g>
	</g>
</g>
<g>
	<g transform="translate(279.29602, 230.271174)">
		<g>
			<path d="M47.2-81.6c0.5,0,0.8,0.1,1.1,0.2c0.2,0.1,0.4,0.4,0.5,0.7c0.1,0.3,0.2,0.8,0.2,1.3c0,0.6,0,1-0.1,1.4
				c-0.1,0.3-0.3,0.6-0.5,0.8C48-77,47.7-77,47.2-77h-1.4v-4.6H47.2z M47.2-77.8c0.3,0,0.4-0.1,0.6-0.2c0.1-0.1,0.2-0.3,0.2-0.5
				c0-0.2,0.1-0.5,0.1-0.9c0-0.4,0-0.6-0.1-0.8c0-0.2-0.1-0.3-0.2-0.4c-0.1-0.1-0.3-0.1-0.6-0.1h-0.5v3H47.2z"/>
		</g>
	</g>
</g>
<g>
	<g transform="translate(285.112286, 230.271174)">
		<g>
			<path d="M46.4-77.8H45L44.8-77H44l0.9-4.6h1.6l0.9,4.6h-0.8L46.4-77.8z M45.9-80.8h-0.3l-0.4,2.2h1.1L45.9-80.8z"/>
		</g>
	</g>
</g>
<g>
	<g transform="translate(290.640536, 230.271174)">
		<g>
			<path d="M43.8-78.8l-1.3-2.7h0.9l0.8,1.8l0.8-1.8h0.9l-1.3,2.7v1.9h-0.8V-78.8z"/>
		</g>
	</g>
</g>
</svg>
